HIERARCHY
ROOT Hips
{
	OFFSET -14.64140 90.27770 -84.91600
	CHANNELS 6 Xposition Yposition Zposition Zrotation Xrotation Yrotation
	JOINT Spine
	{
		OFFSET 0.00000 13.20850 -1.60436
		CHANNELS 3 Zrotation Xrotation Yrotation
		JOINT Spine1
		{
			OFFSET 0.00000 8.61716 0.00000
			CHANNELS 3 Zrotation Xrotation Yrotation
			JOINT Spine2
			{
				OFFSET 0.00000 8.61717 0.00000
				CHANNELS 3 Zrotation Xrotation Yrotation
				JOINT Spine3
				{
					OFFSET 0.00000 8.61717 0.00000
					CHANNELS 3 Zrotation Xrotation Yrotation
					JOINT Neck
					{
						OFFSET 0.00000 11.07920 1.10792
						CHANNELS 3 Zrotation Xrotation Yrotation
						JOINT Neck1
						{
							OFFSET 0.00000 7.08032 0.00000
							CHANNELS 3 Zrotation Xrotation Yrotation
							JOINT Head
							{
								OFFSET 0.00000 7.08031 0.00000
								CHANNELS 3 Zrotation Xrotation Yrotation
								End site
								{
									OFFSET 0.00000 0.00000 0.00000
								}
							}
						}
					}
					JOINT RightShoulder
					{
						OFFSET -0.01000 7.91373 5.19711
						CHANNELS 3 Zrotation Xrotation Yrotation
						JOINT RightArm
						{
							OFFSET -18.41580 0.00000 0.00000
							CHANNELS 3 Zrotation Xrotation Yrotation
							JOINT RightForeArm
							{
								OFFSET -29.11090 0.00000 0.00000
								CHANNELS 3 Zrotation Xrotation Yrotation
								JOINT RightHand
								{
									OFFSET -24.65040 0.00000 0.00000
									CHANNELS 3 Zrotation Xrotation Yrotation
									JOINT RightHandThumb1
									{
										OFFSET -5.35114 -0.85590 3.97906
										CHANNELS 3 Zrotation Xrotation Yrotation
										JOINT RightHandThumb2
										{
											OFFSET -4.52789 0.00000 0.00000
											CHANNELS 3 Zrotation Xrotation Yrotation
											JOINT RightHandThumb3
											{
												OFFSET -2.46976 0.00000 0.00000
												CHANNELS 3 Zrotation Xrotation Yrotation
												End site
												{
													OFFSET 0.00000 0.00000 0.00000
												}
											}
										}
									}
									JOINT RightHandIndex1
									{
										OFFSET -14.26970 0.00000 2.88139
										CHANNELS 3 Zrotation Xrotation Yrotation
										JOINT RightHandIndex2
										{
											OFFSET -5.48836 0.00000 0.00000
											CHANNELS 3 Zrotation Xrotation Yrotation
											JOINT RightHandIndex3
											{
												OFFSET -3.01859 0.00000 0.00000
												CHANNELS 3 Zrotation Xrotation Yrotation
												End site
												{
													OFFSET 0.00000 0.00000 0.00000
												}
											}
										}
									}
									JOINT RightHandMiddle1
									{
										OFFSET -14.26970 0.00000 -0.09147
										CHANNELS 3 Zrotation Xrotation Yrotation
										JOINT RightHandMiddle2
										{
											OFFSET -6.17441 0.00000 0.00000
											CHANNELS 3 Zrotation Xrotation Yrotation
											JOINT RightHandMiddle3
											{
												OFFSET -3.56743 0.00000 0.00000
												CHANNELS 3 Zrotation Xrotation Yrotation
												End site
												{
													OFFSET 0.00000 0.00000 0.00000
												}
											}
										}
									}
									JOINT RightHandRing1
									{
										OFFSET -12.69180 0.00000 -3.06433
										CHANNELS 3 Zrotation Xrotation Yrotation
										JOINT RightHandRing2
										{
											OFFSET -5.62556 0.00000 0.00000
											CHANNELS 3 Zrotation Xrotation Yrotation
											JOINT RightHandRing3
											{
												OFFSET -3.56744 0.00000 0.00000
												CHANNELS 3 Zrotation Xrotation Yrotation
												End site
												{
													OFFSET 0.00000 0.00000 0.00000
												}
											}
										}
									}
									JOINT RightHandPinky1
									{
										OFFSET -11.11390 0.00000 -6.03719
										CHANNELS 3 Zrotation Xrotation Yrotation
										JOINT RightHandPinky2
										{
											OFFSET -4.52789 0.00000 0.00000
											CHANNELS 3 Zrotation Xrotation Yrotation
											JOINT RightHandPinky3
											{
												OFFSET -2.46976 0.00000 0.00000
												CHANNELS 3 Zrotation Xrotation Yrotation
												End site
												{
													OFFSET 0.00000 0.00000 0.00000
												}
											}
										}
									}
								}
							}
						}
					}
					JOINT LeftShoulder
					{
						OFFSET 0.01000 7.91373 5.19711
						CHANNELS 3 Zrotation Xrotation Yrotation
						JOINT LeftArm
						{
							OFFSET 18.41580 0.00000 0.00000
							CHANNELS 3 Zrotation Xrotation Yrotation
							JOINT LeftForeArm
							{
								OFFSET 29.11090 0.00000 0.00000
								CHANNELS 3 Zrotation Xrotation Yrotation
								JOINT LeftHand
								{
									OFFSET 24.65040 0.00000 0.00000
									CHANNELS 3 Zrotation Xrotation Yrotation
									JOINT LeftHandThumb1
									{
										OFFSET 5.35114 -0.85590 3.97906
										CHANNELS 3 Zrotation Xrotation Yrotation
										JOINT LeftHandThumb2
										{
											OFFSET 4.52789 0.00000 0.00000
											CHANNELS 3 Zrotation Xrotation Yrotation
											JOINT LeftHandThumb3
											{
												OFFSET 2.46977 0.00000 0.00000
												CHANNELS 3 Zrotation Xrotation Yrotation
												End site
												{
													OFFSET 0.00000 0.00000 0.00000
												}
											}
										}
									}
									JOINT LeftHandIndex1
									{
										OFFSET 14.26970 0.00000 2.88139
										CHANNELS 3 Zrotation Xrotation Yrotation
										JOINT LeftHandIndex2
										{
											OFFSET 5.48836 0.00000 0.00000
											CHANNELS 3 Zrotation Xrotation Yrotation
											JOINT LeftHandIndex3
											{
												OFFSET 3.01859 0.00000 0.00000
												CHANNELS 3 Zrotation Xrotation Yrotation
												End site
												{
													OFFSET 0.00000 0.00000 0.00000
												}
											}
										}
									}
									JOINT LeftHandMiddle1
									{
										OFFSET 14.26970 0.00000 -0.09147
										CHANNELS 3 Zrotation Xrotation Yrotation
										JOINT LeftHandMiddle2
										{
											OFFSET 6.17440 0.00000 0.00000
											CHANNELS 3 Zrotation Xrotation Yrotation
											JOINT LeftHandMiddle3
											{
												OFFSET 3.56744 0.00000 0.00000
												CHANNELS 3 Zrotation Xrotation Yrotation
												End site
												{
													OFFSET 0.00000 0.00000 0.00000
												}
											}
										}
									}
									JOINT LeftHandRing1
									{
										OFFSET 12.69180 0.00000 -3.06433
										CHANNELS 3 Zrotation Xrotation Yrotation
										JOINT LeftHandRing2
										{
											OFFSET 5.62556 0.00000 0.00000
											CHANNELS 3 Zrotation Xrotation Yrotation
											JOINT LeftHandRing3
											{
												OFFSET 3.56744 0.00000 0.00000
												CHANNELS 3 Zrotation Xrotation Yrotation
												End site
												{
													OFFSET 0.00000 0.00000 0.00000
												}
											}
										}
									}
									JOINT LeftHandPinky1
									{
										OFFSET 11.11390 0.00000 -6.03719
										CHANNELS 3 Zrotation Xrotation Yrotation
										JOINT LeftHandPinky2
										{
											OFFSET 4.52789 0.00000 0.00000
											CHANNELS 3 Zrotation Xrotation Yrotation
											JOINT LeftHandPinky3
											{
												OFFSET 2.46976 0.00000 0.00000
												CHANNELS 3 Zrotation Xrotation Yrotation
												End site
												{
													OFFSET 0.00000 0.00000 0.00000
												}
											}
										}
									}
								}
							}
						}
					}
					JOINT pCube4
					{
						OFFSET 0.00000 10.91090 1.10792
						CHANNELS 3 Zrotation Xrotation Yrotation
						End site
						{
							OFFSET 0.00000 0.00000 0.00000
						}
					}
				}
			}
		}
	}
	JOINT RightUpLeg
	{
		OFFSET -9.98441 0.00000 0.00000
		CHANNELS 3 Zrotation Xrotation Yrotation
		JOINT RightLeg
		{
			OFFSET 0.00000 -42.11790 0.00000
			CHANNELS 3 Zrotation Xrotation Yrotation
			JOINT RightFoot
			{
				OFFSET 0.00000 -45.00020 -0.00001
				CHANNELS 3 Zrotation Xrotation Yrotation
				JOINT RightForeFoot
				{
					OFFSET 0.00000 -3.74820 0.00000
					CHANNELS 3 Zrotation Xrotation Yrotation
					JOINT RightToeBase
					{
						OFFSET 0.00000 0.06325 14.43120
						CHANNELS 3 Zrotation Xrotation Yrotation
						End site
						{
							OFFSET 0.00000 0.00000 0.00000
						}
					}
				}
			}
		}
	}
	JOINT LeftUpLeg
	{
		OFFSET 9.98441 0.00000 0.00000
		CHANNELS 3 Zrotation Xrotation Yrotation
		JOINT LeftLeg
		{
			OFFSET 0.00000 -42.11800 0.00000
			CHANNELS 3 Zrotation Xrotation Yrotation
			JOINT LeftFoot
			{
				OFFSET 0.00000 -45.00070 0.00000
				CHANNELS 3 Zrotation Xrotation Yrotation
				JOINT LeftForeFoot
				{
					OFFSET 0.00000 -3.74824 0.00000
					CHANNELS 3 Zrotation Xrotation Yrotation
					JOINT LeftToeBase
					{
						OFFSET 0.00000 0.06325 14.43110
						CHANNELS 3 Zrotation Xrotation Yrotation
						End site
						{
							OFFSET 0.00000 0.00000 0.00000
						}
					}
				}
			}
		}
	}
}
MOTION
Frames: 4
Frame Time: 0.050000
-0.025102245284168302 0.019044783673728114 -0.040927670203607124 -0.0015581006168447365 0.03166765768364358 -0.002747828913350448 1.3594479899927716 4.0406604727342765 -1.537560600488533 -0.5882315000085657 4.086122523047358 0.3053798783882324 -0.5074320654819049 -1.4280561937996576 0.702586027209096 -1.3318270478627283 -0.6529974407150491 -0.3418781331142032 -1.1614802897963012 12.872427379801277 1.3811940942247414 0.3235971258200307 -2.0809233476752755 3.296221062206429 0.21996757361274835 -19.14888985243336 0.24617672069879942 -4.887343042509669 2.0419347018665577 -16.302923697572556 78.83868539871193 9.472847298430962 -1.6480647715808192 0.5528042626793983 3.2253082028271107 52.825047085794544 25.49296332335167 -0.35187395068864036 -2.711610335441717 4.514925405925051 -0.11887531423668819 -1.6198425585759213 0.0244509320290614 0.04829445234283528 -56.27984994146873 0.03548481106788699 0.014646594245990708 -56.220345297226196 -38.79862501534516 0.023549877266583905 0.04962981880648041 0.04732350392364628 0.0013638061986278023 -0.02244920157243046 0.010520045518039572 0.0022168003116869246 0.000817375730549639 -36.66431145242651 0.004408150572053104 -0.013375373210632507 -0.022936638573044867 0.008416079678452364 -0.014741613236729989 -0.03168953251911977 -0.013570949161532408 0.011095821303056162 -19.753539401201067 -0.013105970737188943 -0.020296598181513012 -0.010097960478457346 0.03487477895644093 -0.0381292200563657 -0.03980379095690094 0.04265449386308946 0.023112197375080332 24.07615221268708 0.04905433290171925 -0.0005080602813181355 28.88203361438232 0.02210085353427176 0.010675770706033604 28.83687293712053 -0.027717577338358182 -0.03587031227427282 8.1474548290108 2.041475754902986 14.977146533196766 -78.49778622308392 16.26391167130854 -12.078573517888268 -1.28734630682244 12.065939049079574 -48.18912337441795 -27.30974204657911 8.386515709030371 -3.856709073657597 -0.47421834795042955 0.047254089344446144 -8.123755062860642 0.018036417245221703 0.004254324190011064 44.57653533907337 -0.005235594810580002 0.028089026318319506 44.597735119308155 12.493233559000744 -0.030048426383328636 0.011118429531237897 -0.019282142834033986 -0.04046104739546106 -0.029515288758233824 -0.002072677012874258 -0.04341635170224927 0.04408050349701531 11.098605829531024 -0.01265502121569782 0.01940747904427213 0.014822437886609452 0.014321003610491115 0.04936149327520427 -0.021203413067496193 -0.011070916855756811 -0.005716245246790796 4.81760178460425 -0.03195281167805459 -0.04500303062036124 -0.03604941374431249 0.011095367272953816 0.02383576724748493 0.0483973622977885 -0.020182786418704333 0.022553392079749057 -5.641892109789293 0.022943991360672374 0.011187841829182369 -6.760162381188303 -0.03179632785205818 0.04769948772394883 -6.7199749430487214 0.029604369886643746 0.004920324462372563 -0.004856039570053533 -0.012138851354811422 -0.01003765673461934 8.052948560858464 3.469885190569636 -19.225503435093863 0.04414959380103838 10.381021387601235 0.022274690544004036 -5.616739461661655 -15.662942658387445 3.2220173935677643 0.04889271106323106 0.006011811062714943 -0.02879350512835346 -0.04628513991519588 4.70668179828544 -0.026461491341321426 12.478849235046356 -8.207182737577064 6.861512413799553 0.04169960757069979 46.363944991090264 0.002358852464232096 -4.27645973764967 -14.699603285568704 -3.8298021020730046 -0.013199127190531708 0.003769585615225349 0.0030498053102313285 -0.01491474305741536 -10.753478576203827 0.03172768433083652 
-0.005686750058771252 -0.01195540440782155 -0.005196360156115038 0.01521045532249582 -0.008592640643345346 -0.038162440488788044 0.8639359134319962 4.022272452671945 -1.444426856466375 -0.5816868104333458 4.145620818730206 0.34386125240337356 -0.598832784748774 -1.4369570755509813 0.7618493217350074 -1.4112020328552974 -0.7138425393665384 -0.3224544376816095 -1.14094822458033 12.867868799077739 1.238054150208405 0.36550308571881873 -2.1530866239450583 2.952805693522509 0.2772896626765491 -19.345371086946127 0.1782961456373291 -4.594284469566223 1.9702706089255388 -16.304993657294155 78.49651502675313 9.531964151693836 -1.607726157783605 -0.5615130026080086 3.1618594555993624 54.21789606740495 26.390488727073986 -0.3613552841919333 -2.861394885672588 4.532963817380899 -0.08196668178043387 -1.577202136282319 -0.02085595708596578 0.04722178635159733 -56.247803596991275 0.0019736948246993134 -0.016743862967874716 -56.23516862616651 -38.73693826186982 0.016149185594042072 0.03719631144947122 -0.025805399251532843 -0.013636899024241426 -0.016066636133907918 0.04513046381270933 -0.006778504693763476 0.005151271295422103 -36.716709184072826 0.008848739940608892 0.03061594938068317 -0.022267940046025964 -0.014117401335362021 -0.03683038605315044 -0.0436494399289318 0.019173880865388578 0.0076556203835319876 -19.768169551757953 0.014250538329710322 -0.024980747719604523 -0.019657195416103626 0.01880472891273905 0.0063522890167689965 -0.010445012297607794 0.023415666543590116 0.04270412428872865 24.05556942122734 -0.04152590756869194 -0.03386234851039509 28.872033463984508 -0.012137035093432625 -0.014814802639516029 28.852641020351633 -0.03262602978349984 -0.04226349776756166 7.843266454433169 2.011333282664241 15.041408906807197 -78.80300609627125 15.867671308172193 -11.328701027598866 -0.3652629628056497 12.087985252116036 -47.136309960336746 -28.222978148838745 9.27035267730239 -4.554442164743473 -0.46338537340372565 0.06747445423131396 -8.107073799307328 0.004264506483157915 0.03997861246443215 44.61474983922146 -0.030852643936420888 0.0012039418431936686 44.55444776075621 12.497287371291122 0.013482132819674902 0.018642658106330874 -0.011353501018564228 0.047562964770596475 -0.024785528822018833 -0.00383205381565006 -0.010832663761153884 -0.009623334401769452 11.085123745333982 0.015296741339068371 -0.04957097438036368 0.04510229852726104 0.011408197308554042 -0.03185460096930887 -0.01765162202544505 0.0020292040953712918 -0.017993997626829943 4.75305505434802 -0.034078405837189615 -0.02532237238014883 0.03037841921409628 -0.013353684029614721 0.016078806846641466 0.011700504867336287 -0.040240372209762613 0.0324722506352448 -5.645940641311238 0.01014813753513012 0.025351918802849507 -6.724039788278287 -0.04703191164330787 0.03151254026840591 -6.700144789421144 0.02097222546967755 -0.022810794940719286 -0.011130980901069568 0.017157201102988337 -0.01926260029270935 8.037098525212166 3.486755621488721 -19.19362021969905 -0.020066011056994168 10.378954949555776 0.008293036745032456 -5.599767180085539 -15.627391064202106 3.2384223955287452 7.565128279976627e-05 0.03361365242175419 -0.017092165311484497 0.004406298280733911 4.676151336239937 -0.016356831929933324 12.507190278027489 -8.252515097598346 6.905641627197768 0.03260525288498574 46.38346986496047 -0.025764647500662874 -4.335415009407585 -14.741512826827526 -3.8206343149727937 0.032116409941968016 0.004028948484575247 0.004178992654301422 -0.015728869765391038 -10.78286953560013 -0.014754760895008993 
-0.03318644469104456 0.039023431996097126 -0.028187019184106432 0.006366276764117631 -0.0031792067132734797 0.04162204723565805 0.5150928115818864 4.073018153229673 -1.4781179164424614 -0.5008591304372026 4.081876363500739 0.34922152100619563 -0.5803787511071978 -1.448881156858236 0.780500511877134 -1.4429921396889238 -0.7327406754953832 -0.3128926933748397 -1.1399437117681237 12.768622859290094 1.2401491458157436 0.33495248879135586 -2.327638185299029 2.8562065504549814 0.3212957941953038 -19.49202621817664 0.13320820333039324 -4.413154350482176 1.940671883247283 -16.257554823316255 78.30964736491327 9.809358067679888 -1.744649724026457 -1.5329564060920091 2.962599174947454 55.67115300159917 27.071644021421488 -0.33658761559928474 -3.0539163184459706 4.529001026262236 -0.1281616671804842 -1.590159495201283 -0.03448403016783542 0.020641545154714884 -56.2370121413547 0.029342491108572764 0.030862020607546028 -56.24765458644897 -38.7385559229727 0.04066966411930262 0.004327295658573113 0.03958808227234764 -0.0495750977827944 -0.03614148217001668 -0.002205046461634261 -0.010160661580951766 -0.015058500115864152 -36.71110643886018 0.04538170021044604 -0.0020216071205008666 -0.003939096076850501 0.009485656702924943 -0.008920857455054904 -0.031273872641439576 0.00863328855952713 0.014272938252154995 -19.76195977047991 -0.010297530161950584 0.0015219721280659005 0.02131445454233709 -0.04987343435318886 0.03578156697427343 -0.028945866541454382 -0.01937399534572482 -0.03553155726484803 24.07777950721817 -0.035552677675743036 -0.03994645007348893 28.883143864976965 0.022240463102123322 -0.025794038878139126 28.868458744724688 0.005401067250524661 0.013503979217591786 7.60760269763534 1.8842305740288594 15.069441301137417 -78.94377287069845 16.022431902086243 -10.672246539297264 -0.1208085658790231 11.341834759158935 -46.49324288957034 -28.89223854786516 9.696312037119592 -4.877328023668306 -0.439185199081707 0.04737197359263402 -8.154464892595474 -0.00047949131813904264 -0.023130371379495137 44.584631688307255 0.009770408018431922 -0.018203105385589686 44.54811377314699 12.508062967723582 0.04609171598317299 0.029542762706707953 -0.03797745664415841 0.004291154169544381 0.025113105484189286 -0.0016169842148818735 0.0010131659966322291 -0.014564519697776303 11.08497954848273 -0.009210219780383458 -0.010721085230818652 0.04757871811526642 -0.04998294322573708 0.022468696160456398 0.04631165451837976 0.00552691942815668 -0.03554403400726019 4.7656715436396055 -0.009203218210956255 -0.04709556442981824 0.02727520710614365 0.035520471601088725 0.02179131560075512 0.02678379631152559 -0.04251168639894861 0.019681845199737716 -5.575822256930209 0.015769036806608818 -0.0334568702006273 -6.680133268692019 0.009951483565419203 -0.025658934432387696 -6.696581973957839 0.03385946478238848 -0.01662356818735033 -5.913390742074945e-06 0.011495385719955134 0.044667428184930406 8.077298269420947 3.469313236226759 -19.25942016462782 0.023711188662329998 10.367801376770018 0.0586683400279774 -5.60324495699234 -15.627721446840695 3.2371176388877827 0.011723145833189142 0.006555104840355984 -0.0011446945873941447 -0.009700898243858076 4.677524538340972 0.02450555346971406 12.445592119141462 -8.223243256481929 6.887736693823362 0.006982203622210461 46.381053356201015 0.025455903372591085 -4.2983512470021905 -14.764337133301826 -3.879965975601877 0.027146967468095518 -0.030057845115150018 -0.04763446864101964 0.013566209272838517 -10.729103862761306 0.010520656165759387 
0.01513704680897815 -0.005362806951505748 -0.02658754461336235 -0.026246838475142194 0.008092752386106098 0.042284348304790866 0.018034470685716994 4.074496072651508 -1.4100627171571587 -0.47545409246058223 4.0797181114438885 0.2854390705454567 -0.625508921184169 -1.4547398391607915 0.8180358569253321 -1.555007152210992 -0.7384179741348351 -0.3093666266143438 -1.1770703594068301 12.670738567681935 1.3033624246678284 0.3711806937220817 -2.42110969039776 2.8564929099880145 0.37273560978151576 -19.578675697226956 0.1233406628792529 -3.9622034331032863 1.827953762475717 -16.153115058305055 78.09412712880501 9.684758378406338 -1.9075714872552916 -2.174128792825145 3.6776385106047353 55.946695015835765 27.884594589062523 -0.3466065644281305 -2.952799824871711 4.572000433970052 -0.12132848466730775 -1.557883409218486 -0.03689110324669284 0.003305909478998504 -56.21000519245498 0.002263836040125545 0.02565131024979188 -56.24862188156963 -38.740975581175874 0.012305453107351304 -0.04909851164223175 0.04434889002215657 -0.042387063314677155 -0.028274289405029247 -0.04909132038496876 0.01922884102588293 0.04595863307841603 -36.66287109259136 0.011423179498041024 0.014033348115255969 -0.03783041601028484 -0.02279637412522521 -0.006018425232710506 0.030350046483256878 0.039111445751458265 0.026560785461949225 -19.76684638560032 -0.03610312560311645 0.007456565612036728 -0.009398663265533633 -0.042473035773689896 0.02981614088131306 -0.007889669461993827 -0.04782522201166442 0.04606643444684073 24.005452385414152 -3.251507173568706e-05 -0.02433946361380125 28.84098939180014 0.00852743944723385 0.011936959577521972 28.88279548424273 -0.025844903888580465 -0.029948586282480528 7.170272169721168 1.828535942678057 14.989282888981128 -79.06828947304321 15.745155081712126 -9.894842723523364 0.8724059452285462 11.44843750469657 -45.18264189824997 -29.54124409604002 10.835400620410576 -5.9154698793012725 -0.4657406661293861 0.07671567737021273 -8.09504044569467 -0.012348772949849122 -0.0330485311087854 44.60002431548503 0.013481060810392118 -0.04625980322068112 44.58217374921349 12.433216558465222 0.015590000107107548 -0.04632110388590421 0.031218665225572612 -0.017964663686456207 -0.04429105749651536 -0.024991619036844968 -0.019100213441302128 0.031124296635406466 11.100893004303934 0.019454743677296396 0.014285264649304508 -0.012295837679876787 -0.02282555833260349 -0.0038287442947396028 -0.0052919129081600135 -0.008992285061222962 0.01431786189890754 4.814033269047849 -0.03833621054091224 -0.008240550475501455 -0.01688951116918209 0.02201692084306956 0.028150380335081965 0.01935419813895807 -0.04551291686031576 -0.001791338747874906 -5.643647848152537 -0.01121240692910671 -0.027617405005106285 -6.708639922348938 0.008550455878275584 -0.042116424842556524 -6.7611438074138155 0.00875901569559188 0.04174073514023246 0.008472939924494811 -0.020816163002048742 0.02161139532573759 8.077612034640316 3.5305604932237045 -19.267595904407745 -0.026285187120162656 10.406750117753774 -0.02331277646781507 -5.608878832335231 -15.648795948128527 3.1783490063121347 -0.006762654672639583 0.021411402666582566 -0.02576208633272844 -0.04385629933888937 4.697414182593911 -0.048433769832216325 12.47129198046685 -8.209529568010504 6.874322944268894 -0.025867979398607268 46.37889222289193 -0.03438872577904035 -4.3315962076274745 -14.780980479922832 -3.8826617488015827 -0.02749061812095392 0.02307242760874297 -0.02723525964581329 0.008161863772722149 -10.741026887535583 -0.0009616339267779034 
